<svg width="1027" height="293" viewBox="0 0 1027 293" fill="none" xmlns="http://www.w3.org/2000/svg">
<path d="M215.25 232V55.5H265.75V131.25C269.25 122.583 274.333 116 281 111.5C287.833 106.833 295.833 104.5 305 104.5C313.5 104.5 320.75 106.167 326.75 109.5C332.917 112.667 337.667 117.5 341 124C344.333 130.333 346 138.167 346 147.5V232H295.5V161C295.5 153.833 294.333 148.917 292 146.25C289.833 143.583 286.75 142.25 282.75 142.25C279.417 142.25 276.417 143.083 273.75 144.75C271.25 146.417 269.25 149.083 267.75 152.75C266.417 156.25 265.75 160.75 265.75 166.25V232H215.25ZM434.279 234.5C419.946 234.5 407.529 232 397.029 227C386.696 221.833 378.696 214.417 373.029 204.75C367.529 195.083 364.779 183.333 364.779 169.5C364.779 155.667 367.613 143.917 373.279 134.25C378.946 124.583 386.863 117.25 397.029 112.25C407.196 107.083 418.946 104.5 432.279 104.5C445.946 104.5 457.529 107.083 467.029 112.25C476.696 117.25 484.029 124.25 489.029 133.25C494.196 142.25 496.779 152.75 496.779 164.75C496.779 167.583 496.613 170.417 496.279 173.25C496.113 176.083 495.863 178.5 495.529 180.5H397.279V158.5H473.529L449.529 167.75C449.529 158.25 448.196 151.083 445.529 146.25C443.029 141.25 438.613 138.75 432.279 138.75C427.946 138.75 424.279 139.75 421.279 141.75C418.446 143.75 416.279 147.083 414.779 151.75C413.446 156.417 412.779 162.583 412.779 170.25C412.779 177.917 413.613 184 415.279 188.5C417.113 192.833 419.613 195.833 422.779 197.5C425.946 199.167 429.946 200 434.779 200C440.113 200 444.279 198.917 447.279 196.75C450.279 194.583 452.446 191.583 453.779 187.75L494.279 199.75C492.279 207.417 488.196 213.833 482.029 219C476.029 224.167 468.863 228.083 460.529 230.75C452.196 233.25 443.446 234.5 434.279 234.5ZM584.049 153.25C584.049 148.583 582.799 144.917 580.299 142.25C577.965 139.417 574.465 138 569.799 138C565.465 138 561.715 139.167 558.549 141.5C555.549 143.833 553.632 148.25 552.799 154.75L510.049 147C511.715 134 517.799 123.667 528.299 116C538.799 108.333 553.799 104.5 573.299 104.5C586.632 104.5 597.799 106.417 606.799 110.25C615.966 113.917 622.799 119.333 627.299 126.5C631.966 133.667 634.299 142.25 634.299 152.25V194.25C634.299 200.917 637.299 204.25 643.299 204.25C645.799 204.25 647.716 203.917 649.049 203.25L646.549 230.5C641.049 233.167 634.215 234.5 626.049 234.5C618.882 234.5 612.549 233.417 607.049 231.25C601.549 228.917 597.215 225.583 594.049 221.25C590.882 216.917 589.299 211.25 589.299 204.25V202.25L594.299 201.5C594.299 208.167 592.215 214 588.049 219C584.049 224 578.715 227.833 572.049 230.5C565.549 233.167 558.299 234.5 550.299 234.5C541.632 234.5 534.215 233.167 528.049 230.5C521.882 227.833 517.132 224 513.799 219C510.632 214 509.049 207.917 509.049 200.75C509.049 191.583 511.799 184.083 517.299 178.25C522.965 172.417 531.465 168.417 542.799 166.25L588.049 156.75L587.799 178L569.299 182.25C565.132 183.083 562.049 184.5 560.049 186.5C558.215 188.333 557.299 190.917 557.299 194.25C557.299 197.417 558.382 199.917 560.549 201.75C562.715 203.417 565.382 204.25 568.549 204.25C570.715 204.25 572.715 203.917 574.549 203.25C576.382 202.583 577.965 201.583 579.299 200.25C580.799 198.917 581.965 197.25 582.799 195.25C583.632 193.25 584.049 190.833 584.049 188V153.25ZM661.295 232V107H706.545L708.045 136.25C710.878 126.417 715.295 118.667 721.295 113C727.462 107.333 735.462 104.5 745.295 104.5C748.795 104.5 751.628 104.833 753.795 105.5C755.962 106 757.545 106.667 758.545 107.5L754.045 148.5C752.378 147.833 750.212 147.25 747.545 146.75C744.878 146.25 741.795 146 738.295 146C733.295 146 728.795 146.917 724.795 148.75C720.795 150.583 717.628 153.333 715.295 157C712.962 160.5 711.795 165 711.795 170.5V232H661.295ZM829.711 65.75V184C829.711 189.833 830.961 194 833.461 196.5C836.128 199 840.044 200.25 845.211 200.25C848.878 200.25 852.044 199.917 854.711 199.25C857.378 198.583 859.878 197.5 862.211 196L865.461 225.5C861.461 228.333 856.044 230.5 849.211 232C842.378 233.667 835.711 234.5 829.211 234.5C818.544 234.5 809.461 233.083 801.961 230.25C794.628 227.417 788.961 222.917 784.961 216.75C781.128 210.583 779.211 202.333 779.211 192V79.75L829.711 65.75ZM863.711 107V141.75H758.711V107H863.711ZM883.951 232V55.5H934.451V131.25C937.951 122.583 943.035 116 949.701 111.5C956.535 106.833 964.535 104.5 973.701 104.5C982.201 104.5 989.451 106.167 995.451 109.5C1001.62 112.667 1006.37 117.5 1009.7 124C1013.03 130.333 1014.7 138.167 1014.7 147.5V232H964.201V161C964.201 153.833 963.035 148.917 960.701 146.25C958.535 143.583 955.451 142.25 951.451 142.25C948.118 142.25 945.118 143.083 942.451 144.75C939.951 146.417 937.951 149.083 936.451 152.75C935.118 156.25 934.451 160.75 934.451 166.25V232H883.951Z" fill="#61714D"/>
<mask id="mask0_10_100" style="mask-type:alpha" maskUnits="userSpaceOnUse" x="0" y="40" width="211" height="211">
<rect y="40.7315" width="210.269" height="210.269" fill="#D9D9D9"/>
</mask>
<g mask="url(#mask0_10_100)">
<path d="M74.9082 215.955H135.36L144.122 180.91H66.147L74.9082 215.955ZM74.9082 233.478C70.8196 233.478 67.2421 232.236 64.1757 229.754C61.1093 227.272 59.065 224.059 58.0429 220.117L48.1865 180.91H162.082L152.226 220.117C151.204 224.059 149.159 227.272 146.093 229.754C143.026 232.236 139.449 233.478 135.36 233.478H74.9082ZM43.8059 163.388H166.463V145.866H43.8059V163.388ZM105.134 110.821C105.134 96.219 110.245 83.8073 120.466 73.5859C130.688 63.3645 143.099 58.2538 157.701 58.2538C157.701 71.3956 153.54 82.7852 145.217 92.4225C136.894 102.06 126.453 107.901 113.895 109.945V128.343H183.985V163.388C183.985 168.207 182.269 172.332 178.838 175.763C175.406 179.195 171.281 180.91 166.463 180.91H43.8059C38.9873 180.91 34.8622 179.195 31.4308 175.763C27.9993 172.332 26.2836 168.207 26.2836 163.388V128.343H96.3731V109.945C83.8154 107.901 73.375 102.06 65.0518 92.4225C56.7287 82.7852 52.5671 71.3956 52.5671 58.2538C67.1691 58.2538 79.5808 63.3645 89.8022 73.5859C100.024 83.8073 105.134 96.219 105.134 110.821Z" fill="#61714D"/>
</g>
<mask id="mask1_10_100" style="mask-type:alpha" maskUnits="userSpaceOnUse" x="66" y="11" width="79" height="78">
<rect x="66.8958" y="11" width="77.5142" height="77.5142" fill="#D9D9D9"/>
</mask>
<g mask="url(#mask1_10_100)">
<path d="M105.607 80.9244L99.8744 75.7673C94.316 70.7775 89.7223 66.4606 86.0935 62.8166C82.4647 59.1726 79.5931 55.8996 77.4785 52.9975C75.364 50.0954 73.8819 47.4144 73.0323 44.9546C72.1827 42.4948 71.7579 39.9508 71.7579 37.3225C71.7579 31.8076 73.6017 27.202 77.2892 23.5058C80.9767 19.8095 85.5714 17.9614 91.0734 17.9614C93.84 17.9614 96.4736 18.4927 98.9742 19.5552C101.475 20.6178 103.686 22.1496 105.607 24.1506C107.529 22.1496 109.74 20.6178 112.24 19.5552C114.741 18.4927 117.375 17.9614 120.141 17.9614C125.669 17.9614 130.286 19.8095 133.991 23.5058C137.696 27.202 139.548 31.8076 139.548 37.3225C139.548 39.9204 139.131 42.4492 138.296 44.909C137.462 47.3687 135.98 50.0421 133.85 52.929C131.72 55.8158 128.834 59.0889 125.19 62.7482C121.546 66.4074 116.929 70.7471 111.34 75.7673L105.607 80.9244ZM105.607 69.42C110.714 64.7906 114.913 60.8588 118.205 57.6243C121.497 54.3899 124.089 51.5709 125.981 49.1673C127.873 46.7637 129.181 44.6422 129.904 42.8029C130.627 40.9635 130.989 39.1371 130.989 37.3237C130.989 34.2149 129.958 31.6371 127.896 29.5904C125.834 27.5438 123.256 26.5205 120.163 26.5205C117.74 26.5205 115.483 27.2337 113.39 28.6602C111.298 30.0866 109.848 31.9034 109.041 34.1104H102.22C101.427 31.9034 99.9727 30.0866 97.8579 28.6602C95.7432 27.2337 93.4858 26.5205 91.0859 26.5205C88.0221 26.5205 85.4689 27.5438 83.4264 29.5904C81.3839 31.6371 80.3626 34.2145 80.3626 37.3225C80.3626 39.1687 80.7309 41.0281 81.4674 42.9007C82.204 44.7732 83.5193 46.9095 85.4134 49.3096C87.3074 51.7096 89.8851 54.5192 93.1465 57.7385C96.4078 60.9577 100.561 64.8515 105.607 69.42Z" fill="#61714D"/>
</g>
</svg>
